<svg width="33" height="32" viewBox="0 0 33 32" fill="none" xmlns="http://www.w3.org/2000/svg">
<path d="M29.4525 14.5627C29.6986 14.4574 29.9075 14.2844 30.0533 14.0651C30.199 13.8458 30.2752 13.5899 30.2724 13.329C30.2697 13.0681 30.188 12.8138 30.0376 12.5975C29.8872 12.3811 29.6747 12.2123 29.4264 12.112L17.6412 6.90667C17.283 6.74821 16.8938 6.6662 16.5 6.6662C16.1062 6.6662 15.717 6.74821 15.3587 6.90667L3.575 12.1067C3.3302 12.2106 3.12196 12.3815 2.97573 12.5984C2.82949 12.8153 2.75162 13.0689 2.75162 13.328C2.75162 13.5872 2.82949 13.8407 2.97573 14.0576C3.12196 14.2745 3.3302 14.4454 3.575 14.5493L15.3587 19.76C15.717 19.9185 16.1062 20.0005 16.5 20.0005C16.8938 20.0005 17.283 19.9185 17.6412 19.76L29.4525 14.5627Z" stroke="white" stroke-width="2" stroke-linecap="round" stroke-linejoin="round"/>
<path d="M30.25 13.3333V21.3333" stroke="white" stroke-width="2" stroke-linecap="round" stroke-linejoin="round"/>
<path d="M8.25 16.6667V21.3334C8.25 22.3942 9.11919 23.4116 10.6664 24.1618C12.2135 24.9119 14.312 25.3334 16.5 25.3334C18.688 25.3334 20.7865 24.9119 22.3336 24.1618C23.8808 23.4116 24.75 22.3942 24.75 21.3334V16.6667" stroke="white" stroke-width="2" stroke-linecap="round" stroke-linejoin="round"/>
</svg>
