<svg width="33" height="32" viewBox="0 0 33 32" fill="none" xmlns="http://www.w3.org/2000/svg">
<path d="M22 28V25.3333C22 23.9188 21.4205 22.5623 20.3891 21.5621C19.3576 20.5619 17.9587 20 16.5 20H8.25C6.79131 20 5.39236 20.5619 4.36091 21.5621C3.32946 22.5623 2.75 23.9188 2.75 25.3333V28" stroke="white" stroke-width="2" stroke-linecap="round" stroke-linejoin="round"/>
<path d="M22 4.17065C23.1794 4.46715 24.2239 5.13501 24.9696 6.0694C25.7152 7.0038 26.1198 8.15184 26.1198 9.33332C26.1198 10.5148 25.7152 11.6628 24.9696 12.5972C24.2239 13.5316 23.1794 14.1995 22 14.496" stroke="white" stroke-width="2" stroke-linecap="round" stroke-linejoin="round"/>
<path d="M30.25 28V25.3333C30.2491 24.1516 29.8435 23.0037 29.0969 22.0698C28.3503 21.1358 27.3049 20.4688 26.125 20.1733" stroke="white" stroke-width="2" stroke-linecap="round" stroke-linejoin="round"/>
<path d="M12.375 14.6667C15.4126 14.6667 17.875 12.2789 17.875 9.33333C17.875 6.38781 15.4126 4 12.375 4C9.33743 4 6.875 6.38781 6.875 9.33333C6.875 12.2789 9.33743 14.6667 12.375 14.6667Z" stroke="white" stroke-width="2" stroke-linecap="round" stroke-linejoin="round"/>
</svg>
