<svg width="33" height="32" viewBox="0 0 33 32" fill="none" xmlns="http://www.w3.org/2000/svg">
<path d="M26.7163 17.2467C27.2071 15.9574 27.5 14.64 27.5 13.3334C27.5 10.5044 26.3411 7.79127 24.2782 5.79088C22.2153 3.79049 19.4174 2.66669 16.5 2.66669C13.5826 2.66669 10.7847 3.79049 8.72183 5.79088C6.65893 7.79127 5.5 10.5044 5.5 13.3334C5.5 19.9907 13.1161 26.924 15.6736 29.0654C15.9119 29.2391 16.2019 29.333 16.5 29.333C16.7981 29.333 17.0881 29.2391 17.3264 29.0654C17.7046 28.7479 18.0773 28.4243 18.4442 28.0947" stroke="white" stroke-width="2" stroke-linecap="round" stroke-linejoin="round"/>
<path d="M16.5 17.3333C18.7782 17.3333 20.625 15.5425 20.625 13.3333C20.625 11.1242 18.7782 9.33331 16.5 9.33331C14.2218 9.33331 12.375 11.1242 12.375 13.3333C12.375 15.5425 14.2218 17.3333 16.5 17.3333Z" stroke="white" stroke-width="2" stroke-linecap="round" stroke-linejoin="round"/>
<path d="M22 24L24.75 26.6666L30.25 21.3333" stroke="white" stroke-width="2" stroke-linecap="round" stroke-linejoin="round"/>
</svg>
